<?xml version="1.0" encoding="UTF-8" standalone="no"?>
<!DOCTYPE svg PUBLIC "-//W3C//DTD SVG 1.1//EN"
 "http://www.w3.org/Graphics/SVG/1.1/DTD/svg11.dtd">
<!-- Generated by graphviz version 15.0.0 (20260523.1842)
 -->
<!-- Title: G Pages: 1 -->
<svg width="682pt" height="235pt"
 viewBox="0.00 0.00 682.00 235.00" xmlns="http://www.w3.org/2000/svg" xmlns:xlink="http://www.w3.org/1999/xlink">
<g id="graph0" class="graph" transform="scale(1 1) rotate(0) translate(21.6 213.35)">
<title>G</title>
<polygon fill="#111111" stroke="none" points="-21.6,21.6 -21.6,-213.35 660.1,-213.35 660.1,21.6 -21.6,21.6"/>
<!-- App.vue -->
<g id="node1" class="node">
<title>App.vue</title>
<path fill="none" stroke="#c6c5fe" d="M170.71,-170.75C170.71,-170.75 121.04,-170.75 121.04,-170.75 117.08,-170.75 113.12,-166.79 113.12,-162.83 113.12,-162.83 113.12,-154.92 113.12,-154.92 113.12,-150.96 117.08,-147 121.04,-147 121.04,-147 170.71,-147 170.71,-147 174.67,-147 178.62,-150.96 178.62,-154.92 178.62,-154.92 178.62,-162.83 178.62,-162.83 178.62,-166.79 174.67,-170.75 170.71,-170.75"/>
<text xml:space="preserve" text-anchor="middle" x="145.88" y="-153.45" font-family="Arial" font-size="14.00" fill="#c6c5fe">App.vue</text>
</g>
<!-- components/Navbar.vue -->
<g id="node2" class="node">
<title>components/Navbar.vue</title>
<path fill="none" stroke="#c6c5fe" d="M397.83,-191.75C397.83,-191.75 251.42,-191.75 251.42,-191.75 247.46,-191.75 243.5,-187.79 243.5,-183.83 243.5,-183.83 243.5,-175.92 243.5,-175.92 243.5,-171.96 247.46,-168 251.42,-168 251.42,-168 397.83,-168 397.83,-168 401.79,-168 405.75,-171.96 405.75,-175.92 405.75,-175.92 405.75,-183.83 405.75,-183.83 405.75,-187.79 401.79,-191.75 397.83,-191.75"/>
<text xml:space="preserve" text-anchor="middle" x="324.62" y="-174.45" font-family="Arial" font-size="14.00" fill="#c6c5fe">components/Navbar.vue</text>
</g>
<!-- App.vue&#45;&gt;components/Navbar.vue -->
<g id="edge1" class="edge">
<title>App.vue&#45;&gt;components/Navbar.vue</title>
<path fill="none" stroke="#757575" d="M178.88,-162.68C194.02,-164.48 212.94,-166.72 232.06,-169"/>
<polygon fill="#757575" stroke="#757575" points="231.47,-172.45 241.81,-170.15 232.29,-165.5 231.47,-172.45"/>
</g>
<!-- stores/watchlist.js -->
<g id="node4" class="node">
<title>stores/watchlist.js</title>
<path fill="none" stroke="#cfffac" d="M598.71,-149.75C598.71,-149.75 492.79,-149.75 492.79,-149.75 488.83,-149.75 484.88,-145.79 484.88,-141.83 484.88,-141.83 484.88,-133.92 484.88,-133.92 484.88,-129.96 488.83,-126 492.79,-126 492.79,-126 598.71,-126 598.71,-126 602.67,-126 606.62,-129.96 606.62,-133.92 606.62,-133.92 606.62,-141.83 606.62,-141.83 606.62,-145.79 602.67,-149.75 598.71,-149.75"/>
<text xml:space="preserve" text-anchor="middle" x="545.75" y="-132.45" font-family="Arial" font-size="14.00" fill="#cfffac">stores/watchlist.js</text>
</g>
<!-- components/Navbar.vue&#45;&gt;stores/watchlist.js -->
<g id="edge2" class="edge">
<title>components/Navbar.vue&#45;&gt;stores/watchlist.js</title>
<path fill="none" stroke="#757575" d="M390.18,-167.5C416.25,-162.5 446.44,-156.72 473.18,-151.59"/>
<polygon fill="#757575" stroke="#757575" points="473.75,-155.05 482.92,-149.73 472.44,-148.17 473.75,-155.05"/>
</g>
<!-- components/MovieCard.vue -->
<g id="node3" class="node">
<title>components/MovieCard.vue</title>
<path fill="none" stroke="#cfffac" d="M630.58,-107.75C630.58,-107.75 460.92,-107.75 460.92,-107.75 456.96,-107.75 453,-103.79 453,-99.83 453,-99.83 453,-91.92 453,-91.92 453,-87.96 456.96,-84 460.92,-84 460.92,-84 630.58,-84 630.58,-84 634.54,-84 638.5,-87.96 638.5,-91.92 638.5,-91.92 638.5,-99.83 638.5,-99.83 638.5,-103.79 634.54,-107.75 630.58,-107.75"/>
<text xml:space="preserve" text-anchor="middle" x="545.75" y="-90.45" font-family="Arial" font-size="14.00" fill="#cfffac">components/MovieCard.vue</text>
</g>
<!-- data/movies.js -->
<g id="node5" class="node">
<title>data/movies.js</title>
<path fill="none" stroke="#cfffac" d="M589.33,-65.75C589.33,-65.75 502.17,-65.75 502.17,-65.75 498.21,-65.75 494.25,-61.79 494.25,-57.83 494.25,-57.83 494.25,-49.92 494.25,-49.92 494.25,-45.96 498.21,-42 502.17,-42 502.17,-42 589.33,-42 589.33,-42 593.29,-42 597.25,-45.96 597.25,-49.92 597.25,-49.92 597.25,-57.83 597.25,-57.83 597.25,-61.79 593.29,-65.75 589.33,-65.75"/>
<text xml:space="preserve" text-anchor="middle" x="545.75" y="-48.45" font-family="Arial" font-size="14.00" fill="#cfffac">data/movies.js</text>
</g>
<!-- main.js -->
<g id="node6" class="node">
<title>main.js</title>
<path fill="none" stroke="#c6c5fe" d="M51.58,-128.75C51.58,-128.75 7.92,-128.75 7.92,-128.75 3.96,-128.75 0,-124.79 0,-120.83 0,-120.83 0,-112.92 0,-112.92 0,-108.96 3.96,-105 7.92,-105 7.92,-105 51.58,-105 51.58,-105 55.54,-105 59.5,-108.96 59.5,-112.92 59.5,-112.92 59.5,-120.83 59.5,-120.83 59.5,-124.79 55.54,-128.75 51.58,-128.75"/>
<text xml:space="preserve" text-anchor="middle" x="29.75" y="-111.45" font-family="Arial" font-size="14.00" fill="#c6c5fe">main.js</text>
</g>
<!-- main.js&#45;&gt;App.vue -->
<g id="edge3" class="edge">
<title>main.js&#45;&gt;App.vue</title>
<path fill="none" stroke="#757575" d="M59.84,-127.58C72.79,-132.35 88.29,-138.05 102.48,-143.27"/>
<polygon fill="#757575" stroke="#757575" points="101.01,-146.46 111.6,-146.63 103.43,-139.89 101.01,-146.46"/>
</g>
<!-- router/index.js -->
<g id="node7" class="node">
<title>router/index.js</title>
<path fill="none" stroke="#c6c5fe" d="M188.33,-107.75C188.33,-107.75 103.42,-107.75 103.42,-107.75 99.46,-107.75 95.5,-103.79 95.5,-99.83 95.5,-99.83 95.5,-91.92 95.5,-91.92 95.5,-87.96 99.46,-84 103.42,-84 103.42,-84 188.33,-84 188.33,-84 192.29,-84 196.25,-87.96 196.25,-91.92 196.25,-91.92 196.25,-99.83 196.25,-99.83 196.25,-103.79 192.29,-107.75 188.33,-107.75"/>
<text xml:space="preserve" text-anchor="middle" x="145.88" y="-90.45" font-family="Arial" font-size="14.00" fill="#c6c5fe">router/index.js</text>
</g>
<!-- main.js&#45;&gt;router/index.js -->
<g id="edge4" class="edge">
<title>main.js&#45;&gt;router/index.js</title>
<path fill="none" stroke="#757575" d="M59.84,-111.52C67.37,-110.14 75.77,-108.59 84.27,-107.03"/>
<polygon fill="#757575" stroke="#757575" points="84.75,-110.5 93.95,-105.25 83.48,-103.61 84.75,-110.5"/>
</g>
<!-- pages/HomePage.vue -->
<g id="node8" class="node">
<title>pages/HomePage.vue</title>
<path fill="none" stroke="#c6c5fe" d="M391.83,-107.75C391.83,-107.75 257.42,-107.75 257.42,-107.75 253.46,-107.75 249.5,-103.79 249.5,-99.83 249.5,-99.83 249.5,-91.92 249.5,-91.92 249.5,-87.96 253.46,-84 257.42,-84 257.42,-84 391.83,-84 391.83,-84 395.79,-84 399.75,-87.96 399.75,-91.92 399.75,-91.92 399.75,-99.83 399.75,-99.83 399.75,-103.79 395.79,-107.75 391.83,-107.75"/>
<text xml:space="preserve" text-anchor="middle" x="324.62" y="-90.45" font-family="Arial" font-size="14.00" fill="#c6c5fe">pages/HomePage.vue</text>
</g>
<!-- router/index.js&#45;&gt;pages/HomePage.vue -->
<g id="edge13" class="edge">
<title>router/index.js&#45;&gt;pages/HomePage.vue</title>
<path fill="none" stroke="#757575" d="M196.58,-95.88C209.47,-95.88 223.73,-95.88 237.9,-95.88"/>
<polygon fill="#757575" stroke="#757575" points="237.7,-99.38 247.7,-95.88 237.7,-92.38 237.7,-99.38"/>
</g>
<!-- pages/MovieDetailPage.vue -->
<g id="node9" class="node">
<title>pages/MovieDetailPage.vue</title>
<path fill="none" stroke="#c6c5fe" d="M409.08,-65.75C409.08,-65.75 240.17,-65.75 240.17,-65.75 236.21,-65.75 232.25,-61.79 232.25,-57.83 232.25,-57.83 232.25,-49.92 232.25,-49.92 232.25,-45.96 236.21,-42 240.17,-42 240.17,-42 409.08,-42 409.08,-42 413.04,-42 417,-45.96 417,-49.92 417,-49.92 417,-57.83 417,-57.83 417,-61.79 413.04,-65.75 409.08,-65.75"/>
<text xml:space="preserve" text-anchor="middle" x="324.62" y="-48.45" font-family="Arial" font-size="14.00" fill="#c6c5fe">pages/MovieDetailPage.vue</text>
</g>
<!-- router/index.js&#45;&gt;pages/MovieDetailPage.vue -->
<g id="edge14" class="edge">
<title>router/index.js&#45;&gt;pages/MovieDetailPage.vue</title>
<path fill="none" stroke="#757575" d="M196.5,-83.53C208.22,-80.66 220.67,-77.63 232.25,-74.88 240.71,-72.86 249.62,-70.77 258.43,-68.73"/>
<polygon fill="#757575" stroke="#757575" points="259.05,-72.18 268,-66.52 257.47,-65.36 259.05,-72.18"/>
</g>
<!-- pages/SearchPage.vue -->
<g id="node10" class="node">
<title>pages/SearchPage.vue</title>
<path fill="none" stroke="#c6c5fe" d="M394.83,-23.75C394.83,-23.75 254.42,-23.75 254.42,-23.75 250.46,-23.75 246.5,-19.79 246.5,-15.83 246.5,-15.83 246.5,-7.92 246.5,-7.92 246.5,-3.96 250.46,0 254.42,0 254.42,0 394.83,0 394.83,0 398.79,0 402.75,-3.96 402.75,-7.92 402.75,-7.92 402.75,-15.83 402.75,-15.83 402.75,-19.79 398.79,-23.75 394.83,-23.75"/>
<text xml:space="preserve" text-anchor="middle" x="324.62" y="-6.45" font-family="Arial" font-size="14.00" fill="#c6c5fe">pages/SearchPage.vue</text>
</g>
<!-- router/index.js&#45;&gt;pages/SearchPage.vue -->
<g id="edge15" class="edge">
<title>router/index.js&#45;&gt;pages/SearchPage.vue</title>
<path fill="none" stroke="#757575" d="M159.67,-83.75C175.48,-69.44 203.8,-45.95 232.25,-32.88 236.29,-31.02 240.52,-29.32 244.83,-27.76"/>
<polygon fill="#757575" stroke="#757575" points="245.87,-31.1 254.27,-24.66 243.68,-24.45 245.87,-31.1"/>
</g>
<!-- pages/WatchlistPage.vue -->
<g id="node11" class="node">
<title>pages/WatchlistPage.vue</title>
<path fill="none" stroke="#c6c5fe" d="M400.83,-149.75C400.83,-149.75 248.42,-149.75 248.42,-149.75 244.46,-149.75 240.5,-145.79 240.5,-141.83 240.5,-141.83 240.5,-133.92 240.5,-133.92 240.5,-129.96 244.46,-126 248.42,-126 248.42,-126 400.83,-126 400.83,-126 404.79,-126 408.75,-129.96 408.75,-133.92 408.75,-133.92 408.75,-141.83 408.75,-141.83 408.75,-145.79 404.79,-149.75 400.83,-149.75"/>
<text xml:space="preserve" text-anchor="middle" x="324.62" y="-132.45" font-family="Arial" font-size="14.00" fill="#c6c5fe">pages/WatchlistPage.vue</text>
</g>
<!-- router/index.js&#45;&gt;pages/WatchlistPage.vue -->
<g id="edge16" class="edge">
<title>router/index.js&#45;&gt;pages/WatchlistPage.vue</title>
<path fill="none" stroke="#757575" d="M196.5,-108.22C208.22,-111.09 220.67,-114.12 232.25,-116.88 240.71,-118.89 249.62,-120.98 258.43,-123.02"/>
<polygon fill="#757575" stroke="#757575" points="257.47,-126.39 268,-125.23 259.05,-119.57 257.47,-126.39"/>
</g>
<!-- pages/HomePage.vue&#45;&gt;components/MovieCard.vue -->
<g id="edge5" class="edge">
<title>pages/HomePage.vue&#45;&gt;components/MovieCard.vue</title>
<path fill="none" stroke="#757575" d="M400.12,-95.88C413.43,-95.88 427.52,-95.88 441.47,-95.88"/>
<polygon fill="#757575" stroke="#757575" points="441.1,-99.38 451.1,-95.88 441.1,-92.38 441.1,-99.38"/>
</g>
<!-- pages/HomePage.vue&#45;&gt;stores/watchlist.js -->
<g id="edge7" class="edge">
<title>pages/HomePage.vue&#45;&gt;stores/watchlist.js</title>
<path fill="none" stroke="#757575" d="M390.18,-108.25C416.25,-113.25 446.44,-119.03 473.18,-124.16"/>
<polygon fill="#757575" stroke="#757575" points="472.44,-127.58 482.92,-126.02 473.75,-120.7 472.44,-127.58"/>
</g>
<!-- pages/HomePage.vue&#45;&gt;data/movies.js -->
<g id="edge6" class="edge">
<title>pages/HomePage.vue&#45;&gt;data/movies.js</title>
<path fill="none" stroke="#757575" d="M390.18,-83.5C419.38,-77.9 453.75,-71.32 482.65,-65.78"/>
<polygon fill="#757575" stroke="#757575" points="483.19,-69.24 492.35,-63.92 481.87,-62.36 483.19,-69.24"/>
</g>
<!-- pages/MovieDetailPage.vue&#45;&gt;stores/watchlist.js -->
<g id="edge9" class="edge">
<title>pages/MovieDetailPage.vue&#45;&gt;stores/watchlist.js</title>
<path fill="none" stroke="#757575" d="M398.64,-66.12C405.06,-68.53 411.29,-71.42 417,-74.88 438.04,-87.6 431.96,-104.16 453,-116.88 459.48,-120.79 466.63,-123.98 473.98,-126.57"/>
<polygon fill="#757575" stroke="#757575" points="472.82,-129.88 483.41,-129.51 474.9,-123.19 472.82,-129.88"/>
</g>
<!-- pages/MovieDetailPage.vue&#45;&gt;data/movies.js -->
<g id="edge8" class="edge">
<title>pages/MovieDetailPage.vue&#45;&gt;data/movies.js</title>
<path fill="none" stroke="#757575" d="M417.28,-53.88C439.25,-53.88 462.2,-53.88 482.48,-53.88"/>
<polygon fill="#757575" stroke="#757575" points="482.25,-57.38 492.25,-53.88 482.25,-50.38 482.25,-57.38"/>
</g>
<!-- pages/SearchPage.vue&#45;&gt;data/movies.js -->
<g id="edge10" class="edge">
<title>pages/SearchPage.vue&#45;&gt;data/movies.js</title>
<path fill="none" stroke="#757575" d="M390.18,-24.25C419.38,-29.85 453.75,-36.43 482.65,-41.97"/>
<polygon fill="#757575" stroke="#757575" points="481.87,-45.39 492.35,-43.83 483.19,-38.51 481.87,-45.39"/>
</g>
<!-- pages/WatchlistPage.vue&#45;&gt;components/MovieCard.vue -->
<g id="edge11" class="edge">
<title>pages/WatchlistPage.vue&#45;&gt;components/MovieCard.vue</title>
<path fill="none" stroke="#757575" d="M390.18,-125.5C414.93,-120.76 443.38,-115.31 469.07,-110.38"/>
<polygon fill="#757575" stroke="#757575" points="469.62,-113.84 478.79,-108.52 468.31,-106.96 469.62,-113.84"/>
</g>
<!-- pages/WatchlistPage.vue&#45;&gt;stores/watchlist.js -->
<g id="edge12" class="edge">
<title>pages/WatchlistPage.vue&#45;&gt;stores/watchlist.js</title>
<path fill="none" stroke="#757575" d="M409.09,-137.88C430.22,-137.88 452.72,-137.88 473.2,-137.88"/>
<polygon fill="#757575" stroke="#757575" points="473.16,-141.38 483.16,-137.88 473.16,-134.38 473.16,-141.38"/>
</g>
</g>
</svg>
